<?xml version="1.0" encoding="UTF-8" standalone="no"?>
<!-- Created with Inkscape (http://www.inkscape.org/) -->

<svg
   xmlns:dc="http://purl.org/dc/elements/1.1/"
   xmlns:cc="http://creativecommons.org/ns#"
   xmlns:rdf="http://www.w3.org/1999/02/22-rdf-syntax-ns#"
   xmlns:svg="http://www.w3.org/2000/svg"
   xmlns="http://www.w3.org/2000/svg"
   xmlns:sodipodi="http://sodipodi.sourceforge.net/DTD/sodipodi-0.dtd"
   xmlns:inkscape="http://www.inkscape.org/namespaces/inkscape"
   width="115mm"
   height="115mm"
   viewBox="0 0 407.48032 407.48032"
   id="svg2"
   version="1.1"
   inkscape:version="0.91 r13725"
   sodipodi:docname="dwasp-icon.svg"
   inkscape:export-filename="C:\Users\Philip\Desktop\dwasp-icon512.png"
   inkscape:export-xdpi="113.08522"
   inkscape:export-ydpi="113.08522">
  <defs
     id="defs4" />
  <sodipodi:namedview
     id="base"
     pagecolor="#ffffff"
     bordercolor="#666666"
     borderopacity="1.0"
     inkscape:pageopacity="0.0"
     inkscape:pageshadow="2"
     inkscape:zoom="1.9338942"
     inkscape:cx="199.66177"
     inkscape:cy="193.26748"
     inkscape:document-units="px"
     inkscape:current-layer="layer4"
     showgrid="false"
     inkscape:window-width="1920"
     inkscape:window-height="1147"
     inkscape:window-x="-8"
     inkscape:window-y="-8"
     inkscape:window-maximized="1" />
  <metadata
     id="metadata7">
    <rdf:RDF>
      <cc:Work
         rdf:about="">
        <dc:format>image/svg+xml</dc:format>
        <dc:type
           rdf:resource="http://purl.org/dc/dcmitype/StillImage" />
        <dc:title></dc:title>
      </cc:Work>
    </rdf:RDF>
  </metadata>
  <g
     inkscape:label="bug"
     inkscape:groupmode="layer"
     id="layer1"
     transform="translate(0,-644.88189)">
    <g
       id="g4751"
       transform="matrix(0.73500985,0,0,0.73500985,8.5461393,711.76012)">
      <path
         inkscape:connector-curvature="0"
         id="path4300"
         d="m 438.41998,156.2282 a 32.5,32.5 0 0 0 -32.5,32.5 l 65,0 a 32.5,32.5 0 0 0 -32.5,-32.5 z"
         style="fill:#000000;stroke:none" />
      <g
         id="g4368">
        <g
           id="g4748">
          <path
             inkscape:connector-curvature="0"
             id="path4310"
             d="m 357.25224,183.73609 c -2.48136,-0.067 -4.91303,1.19498 -6.2461,3.5039 l -0.5,0.86524 c -1.939,3.35843 -0.79597,7.62349 2.5625,9.5625 l 41.56836,24 7.5,-12.99024 -41.56836,-24 c -1.04952,-0.60594 -2.18852,-0.91093 -3.3164,-0.9414 z m -11.56641,61.69336 c -3.878,0 -7,3.122 -7,7 l 0,1 c 0,3.878 3.122,7 7,7 l 48,0 0,-15 -48,0 z m 48.95117,38.76172 -41.56836,24 c -3.35847,1.939 -4.50149,6.20405 -2.5625,9.5625 l 0.5,0.86523 c 1.93899,3.35845 6.20403,4.50151 9.5625,2.5625 l 41.56836,-24 -7.5,-12.99023 z"
             style="fill:#000000;stroke:none" />
        </g>
        <path
           inkscape:connector-curvature="0"
           style="fill:#000000;stroke:none"
           d="m 519.58775,183.73609 c 2.48136,-0.067 4.91303,1.19498 6.2461,3.5039 l 0.5,0.86524 c 1.939,3.35843 0.79597,7.62349 -2.5625,9.5625 l -41.56836,24 -7.5,-12.99024 41.56836,-24 c 1.04952,-0.60594 2.18852,-0.91093 3.3164,-0.9414 z m 11.56641,61.69336 c 3.878,0 7,3.122 7,7 l 0,1 c 0,3.878 -3.122,7 -7,7 l -48,0 0,-15 48,0 z m -48.95117,38.76172 41.56836,24 c 3.35847,1.939 4.50149,6.20405 2.5625,9.5625 l -0.5,0.86523 c -1.93899,3.35845 -6.20403,4.50151 -9.5625,2.5625 l -41.56836,-24 7.5,-12.99023 z"
           id="path4310-4" />
      </g>
      <path
         inkscape:connector-curvature="0"
         id="rect4173"
         d="m 390.75391,203.72852 c -4.06266,0 -7.33399,3.26937 -7.33399,7.33203 l 0,0.33398 c 0,0.49289 0.0507,0.97235 0.14258,1.4375 l -0.14258,0 0,43.75781 0,3.24414 0,14.79297 c 0,26.41235 20.97091,47.82867 47.5,49.10157 l 0,-104.99219 15,0 0,104.99219 c 26.52909,-1.2729 47.5,-22.68922 47.5,-49.10157 l 0,-14.79297 0,-3.24414 0,-43.75781 -0.14258,0 c 0.0919,-0.46515 0.14258,-0.94461 0.14258,-1.4375 l 0,-0.33398 c 0,-4.06266 -3.27132,-7.33203 -7.33398,-7.33203 l -95.33203,0 z"
         style="display:inline;fill:#c83737;stroke:none" />
    </g>
  </g>
  <g
     inkscape:groupmode="layer"
     id="layer4"
     inkscape:label="wasp"
     style="display:inline"
     transform="translate(0,-644.88189)">
    <g
       id="g4725"
       transform="matrix(1.0320904,0,0,1.0320904,-140.60493,245.50312)">
      <g
         id="g4706">
        <g
           id="g4695">
          <ellipse
             transform="matrix(0.53478906,-0.8449856,0.79080504,0.61206813,0,0)"
             ry="53.217194"
             rx="43.484993"
             cy="588.26025"
             cx="-230.93776"
             id="path3336"
             style="fill:#ffe680;fill-rule:evenodd;stroke:none;stroke-width:0.86641389px;stroke-linecap:butt;stroke-linejoin:miter;stroke-opacity:1" />
          <g
             id="g4682">
            <path
               style="fill:#6c5353;stroke:none;stroke-opacity:1"
               d="m 358.77344,629.97656 c 4.19652,-35.85405 -30.56085,-60.21484 -60.02149,-60.21484 -14.38624,0 -27.24581,6.07276 -37.07617,16.75 1.59822,1.83666 3.12075,3.73669 4.86133,5.45117 2.91745,2.8737 6.02546,5.57804 9.2832,8.11328 3.25775,2.53525 6.66615,4.90265 10.18946,7.10547 3.5233,2.20283 7.16086,4.24075 10.875,6.11719 3.71413,1.87644 7.5057,3.59039 11.33593,5.14648 3.83023,1.55609 7.69872,2.95354 11.57032,4.19531 3.87159,1.24178 7.74575,2.32824 11.58398,3.26172 3.83823,0.93349 7.64097,1.71447 11.37109,2.34571 3.73013,0.63123 7.3863,1.11224 10.9336,1.44726 1.75846,0.16608 3.39394,0.18686 5.09375,0.28125 z"
               id="path4512"
               inkscape:connector-curvature="0" />
            <path
               style="fill:#6c5353;stroke:none;stroke-opacity:1"
               d="m 422.93359,722.21875 c 10.24819,-5.84179 17.95632,-13.12818 21.31641,-21.75 -6.99605,1.13952 -14.475,1.78835 -21.99414,1.80078 0.15041,2.8653 0.46903,6.3132 0.57031,9.00586 0.15314,4.07153 0.0584,7.24603 0.10742,10.94336 z"
               id="path4522"
               inkscape:connector-curvature="0" />
            <path
               style="fill:#6c5353;stroke:none;stroke-opacity:1"
               d="m 410.13086,701.67773 c -11.75758,-1.34075 -23.04995,-4.8608 -32.16406,-11.80273 -3.45774,3.21289 -6.84398,6.2596 -10.09961,9.00977 -3.59672,3.03829 -7.07179,5.80543 -10.4336,8.32421 -3.3618,2.51879 -6.6088,4.78918 -9.74804,6.83594 -3.13925,2.04677 -6.17058,3.86994 -9.09961,5.49219 -2.92903,1.62224 -5.75712,3.04385 -8.48828,4.28906 -2.73116,1.24522 -5.36648,2.31479 -7.91211,3.23047 -2.54564,0.91568 -5.00059,1.67886 -7.37305,2.3125 -2.05354,0.54846 -4.01679,0.95973 -5.94922,1.33008 1.69046,0.61657 3.37827,1.21274 5.04102,1.69726 28.36725,8.84265 66.03999,6.88339 93.93554,-3.26757 0.18797,-1.50995 0.41796,-3.01657 0.58399,-4.52539 0.85632,-7.78207 1.40692,-15.50845 1.70703,-22.92579 z"
               id="path4520"
               inkscape:connector-curvature="0" />
            <path
               style="fill:#ffe680;stroke:none;stroke-opacity:1"
               d="m 410.13086,701.67773 c -0.30011,7.41734 -0.85071,15.14372 -1.70703,22.92579 -0.16603,1.50882 -0.39602,3.01544 -0.58399,4.52539 5.46966,-1.99037 10.52444,-4.30551 15.09375,-6.91016 -0.049,-3.69733 0.0457,-6.87183 -0.10742,-10.94336 -0.10128,-2.69266 -0.4199,-6.14056 -0.57031,-9.00586 -4.05406,0.007 -8.1124,-0.13423 -12.125,-0.5918 z"
               id="path4517"
               inkscape:connector-curvature="0" />
            <path
               style="fill:#6c5353;stroke:none;stroke-opacity:1"
               d="m 362.86523,670.35156 c -2.26426,-5.21082 -3.97737,-11.11763 -4.88281,-17.97461 -9.90957,0.81785 -19.35834,1.47687 -27.6914,1.75586 -9.61083,0.32178 -18.23109,0.3083 -25.99414,0.0137 -7.76306,-0.29462 -14.66925,-0.87032 -20.85157,-1.67382 -6.18231,-0.80351 -11.64116,-1.8342 -16.50976,-3.03907 -4.86861,-1.20487 -9.14682,-2.58332 -12.96875,-4.08203 -3.82193,-1.49871 -7.18818,-3.1177 -10.23047,-4.80273 -0.51611,-0.28586 -0.90808,-0.5934 -1.40625,-0.88281 -0.0443,1.19783 -0.13901,2.36339 -0.14649,3.58398 -0.1046,17.08384 5.77659,32.86213 14.87696,46.36914 3.28451,1.10077 6.59846,2.09916 9.98242,2.7832 3.9958,0.80773 8.04899,1.33737 12.13476,1.61328 4.08578,0.27592 8.20315,0.29829 12.32618,0.0957 4.12302,-0.20259 8.25181,-0.63004 12.35937,-1.25781 4.10756,-0.62778 8.19501,-1.45543 12.23438,-2.45508 4.03937,-0.99966 8.03075,-2.17202 11.94922,-3.49024 3.91846,-1.31822 7.76297,-2.78175 11.50781,-4.36523 3.74484,-1.58348 7.3897,-3.28661 10.9082,-5.08203 3.5185,-1.79543 6.91095,-3.68266 10.15039,-5.63672 0.79013,-0.47662 1.48038,-0.98858 2.25195,-1.47266 z"
               id="path4515"
               inkscape:connector-curvature="0" />
            <path
               style="fill:#ffe680;stroke:none;stroke-opacity:1"
               d="m 362.86523,670.35156 c -0.77157,0.48408 -1.46182,0.99604 -2.25195,1.47266 -3.23944,1.95406 -6.63189,3.84129 -10.15039,5.63672 -3.5185,1.79542 -7.16336,3.49855 -10.9082,5.08203 -3.74484,1.58348 -7.58935,3.04701 -11.50781,4.36523 -3.91847,1.31822 -7.90985,2.49058 -11.94922,3.49024 -4.03937,0.99965 -8.12682,1.8273 -12.23438,2.45508 -4.10756,0.62777 -8.23635,1.05522 -12.35937,1.25781 -4.12303,0.20258 -8.2404,0.18021 -12.32618,-0.0957 -4.08577,-0.27591 -8.13896,-0.80555 -12.13476,-1.61328 -3.38396,-0.68404 -6.69791,-1.68243 -9.98242,-2.7832 13.1725,19.55099 33.1249,34.26758 51.80273,41.08008 1.93243,-0.37035 3.89568,-0.78162 5.94922,-1.33008 2.37246,-0.63364 4.82741,-1.39682 7.37305,-2.3125 2.54563,-0.91568 5.18095,-1.98525 7.91211,-3.23047 2.73116,-1.24521 5.55925,-2.66682 8.48828,-4.28906 2.92903,-1.62225 5.96036,-3.44542 9.09961,-5.49219 3.13924,-2.04676 6.38624,-4.31715 9.74804,-6.83594 3.36181,-2.51878 6.83688,-5.28592 10.4336,-8.32421 3.25563,-2.75017 6.64187,-5.79688 10.09961,-9.00977 -6.25312,-4.76279 -11.46121,-11.14579 -15.10157,-19.52344 z"
               id="path4510"
               inkscape:connector-curvature="0" />
            <path
               style="fill:#ffe680;stroke:none;stroke-opacity:1"
               d="m 242.33008,639.66602 c 0.49817,0.28941 0.89014,0.59695 1.40625,0.88281 3.04229,1.68503 6.40854,3.30402 10.23047,4.80273 3.82193,1.49871 8.10014,2.87716 12.96875,4.08203 4.8686,1.20487 10.32745,2.23556 16.50976,3.03907 6.18232,0.8035 13.08851,1.3792 20.85157,1.67382 7.76305,0.29463 16.38331,0.30811 25.99414,-0.0137 8.33306,-0.27899 17.78183,-0.93801 27.6914,-1.75586 -0.56179,-4.25447 -0.7489,-8.93463 -0.67702,-12.43085 0.0719,-3.49622 1.13483,-7.1227 1.46804,-9.96954 -1.69981,-0.0944 -3.33529,-0.11517 -5.09375,-0.28125 -3.5473,-0.33502 -7.20347,-0.81603 -10.9336,-1.44726 -3.73012,-0.63124 -7.53286,-1.41222 -11.37109,-2.34571 -3.83823,-0.93348 -7.71239,-2.01994 -11.58398,-3.26172 -3.8716,-1.24177 -7.74009,-2.63922 -11.57032,-4.19531 -3.83023,-1.55609 -7.6218,-3.27004 -11.33593,-5.14648 -3.71414,-1.87644 -7.3517,-3.91436 -10.875,-6.11719 -3.52331,-2.20282 -6.93171,-4.57022 -10.18946,-7.10547 -3.25774,-2.53524 -6.36575,-5.23958 -9.2832,-8.11328 -1.74058,-1.71448 -3.26311,-3.61451 -4.86133,-5.45117 -11.29691,12.27013 -18.51416,30.67987 -19.3457,53.1543 z"
               id="path4396"
               inkscape:connector-curvature="0"
               sodipodi:nodetypes="cssssssczcsssssssssccc" />
          </g>
        </g>
        <g
           id="g4674">
          <g
             id="g4670">
            <path
               style="display:inline;fill:#1a1a1a;fill-opacity:1;stroke:none;stroke-opacity:1"
               d="m 403.59961,427.71289 c -0.64409,0.007 -1.29061,0.16463 -1.89649,0.5 -10.10415,5.59294 -21.44858,10.19456 -33.93359,13.88281 -0.3879,0.11459 -0.73832,0.28333 -1.05859,0.49024 -0.0543,0.0325 -0.10334,0.0711 -0.15625,0.10547 -0.0694,0.0495 -0.1373,0.10083 -0.20313,0.15429 -1.81464,1.30723 -2.72147,3.68307 -1.71875,5.75 2.86128,5.89802 5.69756,11.8205 7.16211,19.11524 0.54525,2.7158 3.84498,3.90654 6.44141,2.9414 2.59642,-0.96513 3.78328,-3.78932 2.93359,-6.42578 -2.19338,-6.80569 -3.71288,-10.57424 -5.20898,-14.24218 10.37553,-3.31489 20.3388,-7.31487 29.57226,-12.53321 2.41151,-1.36288 3.7737,-3.9529 2.71289,-6.51172 -0.7956,-1.9191 -2.71421,-3.24832 -4.64648,-3.22656 z"
               id="rect4539"
               inkscape:connector-curvature="0" />
            <path
               style="display:inline;fill:#1a1a1a;fill-opacity:1;stroke:none;stroke-opacity:1"
               d="m 428.29102,449.17773 c -0.24593,-0.0135 -0.49797,0.0133 -0.75196,0.0859 -8.44857,2.41577 -17.56793,3.52766 -27.30468,3.44336 -0.96887,-0.0121 -1.8906,0.27888 -2.58399,0.93555 -4.75971,4.50763 -10.1517,8.31434 -16.89844,11.45117 -2.51178,1.16783 -2.89362,4.65404 -1.3457,6.95117 1.54793,2.29712 4.57044,2.78692 6.93359,1.3418 8.09362,-4.94944 11.3492,-7.52804 15.89454,-10.73828 8.88982,-0.0391 17.62142,-0.92078 26.04492,-3.4336 2.02792,-0.60495 3.57014,-2.68882 3.36523,-5.44531 -0.17929,-2.41193 -1.63206,-4.49726 -3.35351,-4.5918 z"
               id="rect4539-7-4"
               inkscape:connector-curvature="0" />
          </g>
          <g
             id="g4666">
            <path
               style="fill:#6c5353;fill-opacity:1;stroke:none;stroke-opacity:1"
               d="m 451.54059,520.74691 c 4.15439,21.17615 -33.43705,24.9464 -54.23282,23.57417 -22.16095,-1.46232 -42.86147,-9.59349 -47.01586,-30.76964 -4.15439,-21.17615 9.77179,-45.0682 31.58354,-49.25075 21.81176,-4.18254 65.51076,35.27007 69.66514,56.44622 z"
               id="path3345"
               inkscape:connector-curvature="0"
               sodipodi:nodetypes="sssss" />
            <path
               style="display:inline;fill:#ffffff;fill-opacity:1;stroke:none;stroke-width:0.4022921;stroke-opacity:1"
               d="m 430.62961,505.23695 c 1.71725,9.25496 -13.82144,10.90274 -22.41752,10.30301 -9.16038,-0.63909 -17.71709,-4.1928 -19.43433,-13.44777 -1.71725,-9.25496 4.03923,-19.6969 13.05527,-21.52487 9.01605,-1.82796 27.07933,15.41466 28.79658,24.66963 z"
               id="path3345-6"
               inkscape:connector-curvature="0"
               sodipodi:nodetypes="sssss" />
          </g>
        </g>
      </g>
      <g
         id="g4691">
        <path
           style="display:inline;fill:#d5f6ff;fill-opacity:1;stroke:none;stroke-opacity:1"
           d="m 150.96484,432.92383 c -1.06193,-0.0406 -2.18858,0.1268 -3.27734,0.45117 -0.0252,0.007 -0.0511,0.0123 -0.0762,0.0195 -0.12067,0.0369 -0.23992,0.0764 -0.35938,0.11719 -0.12795,0.0432 -0.25483,0.0893 -0.3789,0.13867 -1.22925,0.46925 -2.37135,1.13996 -3.25196,1.9707 -3.25873,3.07423 -1.24836,6.89272 0.13477,10.97852 22.50594,66.48245 57.63623,100.84621 127.1875,114.78906 4.57899,0.91795 8.6397,2.95314 11.89844,-0.12109 3.25873,-3.07425 4.43168,-10.04879 -0.13477,-10.97852 C 195.59531,532.5531 179.45104,489.70542 160.94919,447.5527 c 46.12997,5.15857 92.56985,31.70029 130.99805,63.54688 3.19919,2.65127 8.21222,-7e-5 9.90429,-3.79492 1.69207,-3.79486 -0.5923,-7.25955 -3.79687,-9.9043 -40.36853,-33.3163 -83.54256,-62.3761 -144.52344,-64.44141 -0.79435,-0.0269 -1.57994,-0.033 -2.35156,-0.0156 -0.0723,-0.005 -0.14191,-0.0167 -0.21485,-0.0195 z"
           id="rect4614-6"
           inkscape:connector-curvature="0" />
        <path
           transform="matrix(0.43940591,-0.89828862,0.89828862,0.43940591,0,0)"
           style="display:inline;fill:#d5f6ff;fill-opacity:1;stroke:none;stroke-opacity:1"
           d="m -298.6635,388.75322 c 3.59326,1.13784 11.82454,7.84516 14.89987,10.63916 22.07669,20.05712 28.62758,56.73381 0.68184,115.00266 -1.79678,3.74641 -3.345,7.5 -7.5,7.5 -4.155,0 -9.33266,-3.77101 -7.5,-7.5 34.42289,-70.04173 20.75502,-93.26707 0,-110.764 0.0898,-6.36325 -0.26208,-9.79394 -0.58171,-14.87782 z"
           id="rect4614-0"
           inkscape:connector-curvature="0"
           sodipodi:nodetypes="csssccc" />
      </g>
    </g>
  </g>
</svg>
